<?xml version="1.0" standalone="no"?>
<!DOCTYPE svg PUBLIC "-//W3C//DTD SVG 20010904//EN"
 "http://www.w3.org/TR/2001/REC-SVG-20010904/DTD/svg10.dtd">
<svg version="1.0" xmlns="http://www.w3.org/2000/svg"
 width="260.000000pt" height="260.000000pt" viewBox="0 0 260.000000 260.000000"
 preserveAspectRatio="xMidYMid meet">
<metadata>
Created by potrace 1.11, written by Peter Selinger 2001-2013
</metadata>
<g transform="translate(0.000000,260.000000) scale(0.100000,-0.100000)"
fill="#000000" stroke="none">
<path d="M1165 2592 c-499 -48 -947 -411 -1098 -888 -49 -153 -61 -238 -61
-404 0 -274 70 -506 220 -731 49 -73 223 -258 278 -295 15 -10 33 -24 40 -29
21 -19 140 -90 197 -117 139 -67 304 -112 452 -123 l67 -5 0 1299 0 1300 -32
-2 c-18 -1 -46 -3 -63 -5z m-304 -960 c15 -15 43 -70 64 -122 20 -52 43 -108
50 -125 8 -16 43 -104 79 -195 73 -185 75 -213 22 -235 -46 -20 -72 -1 -107
76 -15 35 -29 69 -29 75 0 17 -22 19 -159 19 -98 -1 -126 -4 -132 -15 -5 -8
-22 -45 -38 -82 -34 -78 -53 -92 -98 -73 -59 25 -56 38 72 365 68 174 126 307
139 318 42 39 96 37 137 -6z"/>
<path d="M787 1502 c-7 -9 -97 -261 -97 -268 0 -2 45 -4 100 -4 55 0 100 3
100 8 0 4 -14 45 -31 92 -17 47 -39 107 -49 134 -10 26 -20 44 -23 38z"/>
<path d="M1340 1301 l0 -1301 58 5 c103 10 170 21 242 41 429 119 769 448 899
869 43 140 59 256 56 415 -7 324 -127 620 -346 854 -226 242 -503 375 -851
411 l-58 6 0 -1300z m716 337 c22 -22 21 -68 -2 -85 -12 -9 -49 -13 -111 -13
l-93 0 0 -273 c0 -261 -1 -274 -20 -295 -31 -33 -75 -33 -102 1 -16 20 -18 52
-18 295 l0 272 -99 0 c-105 0 -116 4 -125 52 -5 29 15 53 49 60 11 2 129 3
263 3 208 -1 245 -3 258 -17z"/>
</g>
</svg>
